<svg xmlns="http://www.w3.org/2000/svg"
    xmlns:xlink="http://www.w3.org/1999/xlink"  id="svg-wrap" height="600"><g id="backwrap"><g id="arcswrap_0"><path d=" M492.9455,447.88365 A-147.88365 147.88365 0 0 0 501.23740156624814 447.651001709227" stroke="#c8c8c8" stroke-width="2" fill="none"></path><path d=" M501.23740156624814,447.651001709227 A-147.88365 147.88365 0 0 0 525.8527046795691 444.1758988787635" stroke="#c1c1c1" stroke-width="6" fill="none"></path><path d=" M525.8527046795691,444.1758988787635 A-147.88365 147.88365 0 0 0 549.5381174073605 436.6266796504498" stroke="#c1c1c1" stroke-width="6" fill="none"></path><path d=" M549.5381174073605,436.6266796504498 A-147.88365 147.88365 0 0 0 525.852749973762 155.82411145934688" stroke="#434343" stroke-width="90" fill="none"></path><path d=" M525.852749973762,155.82411145934688 A-147.88365 147.88365 0 0 0 414.26658295653306 425.2166201036817" stroke="#3c3c3c" stroke-width="100" fill="none"></path><path d=" M414.26658295653306,425.2166201036817 A-147.88365 147.88365 0 0 0 452.00596882033875 442.10393634277705" stroke="#bababa" stroke-width="10" fill="none"></path><path d=" M452.00596882033875,442.10393634277705 A-147.88365 147.88365 0 0 0 492.9454070819623 447.88364999997077" stroke="#bababa" stroke-width="10" fill="none"></path></g></g><g id="labelswrap_0"><text transform="translate(498.88804255446803,511.8003005788963) rotate(88.39285730357143)">0 label 1</text><text transform="translate(522.5647844330381,509.8031914128031) rotate(81.96428651785715)">1 label 3</text><text transform="translate(557.28963094503,501.87747261705886) rotate(72.32143033928571)">2 label 3</text><text transform="translate(704.079401405374,282.1911029350981) rotate(-4.821419089285712)">3 label 45</text><text transform="translate(297.1905675171633,218.91555299588862) rotate(-157.49997524999998)">4 label 50</text><text transform="translate(406.40272663710317,493.4037991249933) rotate(-245.89282355357142)">5 label 5</text><text transform="translate(463.3260837437346,509.8031728024164) rotate(-261.9642505178571)">6 label 5</text></g><g id="connectwrap"><path d="M497.0930823322614 447.8254764853461 L498.88804255446803 511.8003005788963" stroke="black" stroke-width="0.5" fill="none"></path><path d="M513.6182035915506 446.43159926579506 L522.5647844330381 509.8031914128031" stroke="black" stroke-width="0.5" fill="none"></path><path d="M537.8543211394743 440.8998641631183 L557.28963094503 501.87747261705886" stroke="black" stroke-width="0.5" fill="none"></path><path d="M640.3058648916132 287.5703259763933 L704.079401405374 282.1911029350981" stroke="black" stroke-width="0.5" fill="none"></path><path d="M356.3188470182081 243.4073182088398 L297.1905675171633 218.91555299588862" stroke="black" stroke-width="0.5" fill="none"></path><path d="M432.54319332825844 434.985685485741 L406.40272663710317 493.4037991249933" stroke="black" stroke-width="0.5" fill="none"></path><path d="M472.272704402766 446.43158627672335 L463.3260837437346 509.8031728024164" stroke="black" stroke-width="0.5" fill="none"></path></g></svg>