<?xml version="1.0" encoding="utf-8"?>
<!-- Generator: Adobe Illustrator 16.0.4, SVG Export Plug-In . SVG Version: 6.00 Build 0)  -->
<!DOCTYPE svg PUBLIC "-//W3C//DTD SVG 1.1//EN" "http://www.w3.org/Graphics/SVG/1.1/DTD/svg11.dtd">
<svg version="1.1" id="Layer_1" xmlns="http://www.w3.org/2000/svg" xmlns:xlink="http://www.w3.org/1999/xlink" x="0px" y="0px"
	 width="512px" height="512px" viewBox="0 0 512 512" enable-background="new 0 0 512 512" xml:space="preserve">
<path fill="#808080" d="M435.004,77.121c-98.812-98.813-258.982-98.813-357.796,0c-98.813,98.813-98.809,258.979,0.004,357.792
	c98.813,98.813,258.979,98.817,357.793,0.004C533.818,336.104,533.818,175.935,435.004,77.121z M91.523,420.602
	C0.774,329.854,0.771,182.182,91.52,91.433c90.75-90.75,238.424-90.749,329.172,0s90.749,238.424,0,329.173
	S182.272,511.351,91.523,420.602z"/>
<g>
	<polygon fill="#808080" points="360.149,166.289 345.837,151.976 131.634,366.179 145.946,380.491 	"/>
	<polygon fill="#808080" points="282.823,139.653 381.054,131.072 372.473,229.303 	"/>
</g>
</svg>
